<svg width="40" height="40" viewBox="0 0 40 40" fill="none" xmlns="http://www.w3.org/2000/svg">
<path id="Fill 487" fill-rule="evenodd" clip-rule="evenodd" d="M19.7126 30.3108C14.0184 30.3108 9.40161 25.6953 9.40161 20.0004C9.40161 14.3054 14.0184 9.68817 19.7126 9.68817C25.4069 9.68817 30.0237 14.3054 30.0237 20.0004C30.0237 25.6953 25.4069 30.3108 19.7126 30.3108ZM39.2221 22.5815C39.3325 21.7351 39.4096 20.8765 39.4096 20.0004C39.4096 19.1225 39.3325 18.2656 39.2221 17.4192L35.2432 16.7954C35.1188 16.1874 34.9488 15.5969 34.7561 15.0151L37.9116 12.469C37.2458 10.8604 36.3627 9.36925 35.315 8.00948L31.541 9.46738C31.1328 9.01003 30.7018 8.57722 30.2445 8.17069L31.7022 4.39627C30.3408 3.3484 28.8498 2.46525 27.2431 1.79938L24.6956 4.95525C24.1157 4.76249 23.5252 4.59252 22.9172 4.46811L22.2935 0.490425C21.4472 0.378278 20.5887 0.301178 19.7127 0.301178C18.8349 0.301178 17.9781 0.378278 17.1319 0.490425L16.5081 4.46811C15.9001 4.59252 15.3097 4.76249 14.728 4.95525L12.1822 1.79938C10.5738 2.46525 9.08454 3.3484 7.72317 4.39627L9.1809 8.17069C8.72361 8.57722 8.29084 9.01003 7.88436 9.46738L4.11037 8.00948C3.06262 9.36925 2.17957 10.8604 1.51378 12.469L4.66928 15.0151C4.47656 15.5969 4.3066 16.1874 4.1822 16.7954L0.20322 17.4192C0.0928388 18.2656 0.0157471 19.1225 0.0157471 20.0004C0.0157471 20.8765 0.0928388 21.7351 0.20322 22.5815L4.1822 23.2035C4.3066 23.8133 4.47656 24.4038 4.66928 24.9839L1.51378 27.5317C2.17957 29.1385 3.06262 30.6297 4.11037 31.9912L7.88436 30.5333C8.2926 30.9907 8.72361 31.4217 9.1809 31.8283L7.72317 35.6044C9.08454 36.6523 10.5738 37.5355 12.1822 38.2013L14.728 35.0455C15.3097 35.2382 15.9001 35.4082 16.5081 35.5326L17.1319 39.5103C17.9781 39.6224 18.8349 39.6995 19.7127 39.6995C20.5887 39.6995 21.4472 39.6224 22.2935 39.5103L22.9172 35.5326C23.5252 35.4082 24.1157 35.2382 24.6956 35.0455L27.2431 38.2013C28.8498 37.5355 30.3408 36.6523 31.7022 35.6044L30.2445 31.8283C30.7018 31.4217 31.1328 30.9907 31.541 30.5333L35.315 31.9912C36.3627 30.6297 37.2458 29.1385 37.9116 27.5317L34.7561 24.9839C34.9488 24.4038 35.1188 23.8133 35.2432 23.2035L39.2221 22.5815Z" fill="#EB8E3E"/>
</svg>
