<svg width="43" height="44" viewBox="0 0 43 44" fill="none" xmlns="http://www.w3.org/2000/svg">
<path id="Fill 489" fill-rule="evenodd" clip-rule="evenodd" d="M17.7227 32.1945C11.8882 30.1057 8.85013 23.6819 10.9404 17.8468C13.0288 12.0099 19.4502 8.9732 25.2864 11.0619C31.1209 13.1506 34.1572 19.5745 32.0688 25.4096C29.9803 31.2447 23.5571 34.2832 17.7227 32.1945ZM40.5471 31.4287C40.9711 30.6016 41.3653 29.7518 41.686 28.8529C42.0083 27.9539 42.2431 27.048 42.4394 26.1403L38.5918 24.0411C38.6881 23.3717 38.7302 22.7041 38.746 22.0382L42.9142 20.5873C42.8213 18.6949 42.4621 16.8427 41.8892 15.0659L37.4862 15.1728C37.2374 14.556 36.9536 13.9549 36.6347 13.3714L39.5116 10.0368C38.5024 8.46504 37.2987 7.01239 35.8953 5.74023L32.1283 8.03923C31.6045 7.63095 31.0613 7.24019 30.4831 6.88798L31.3049 2.58262C30.4779 2.15856 29.6281 1.76605 28.7293 1.44363C27.8305 1.12121 26.9229 0.886406 26.0153 0.69015L23.9181 4.53817C23.2488 4.44179 22.5812 4.39974 21.9154 4.38397L20.463 0.217033C18.5707 0.308152 16.7205 0.66737 14.9421 1.24037L15.0508 5.64386C14.434 5.89268 13.8331 6.1783 13.2479 6.49547L9.91365 3.61822C8.34203 4.62753 6.89131 5.8331 5.61929 7.23493L7.91803 11.0023C7.50804 11.5263 7.11733 12.0695 6.76691 12.6477L2.46029 11.8277C2.03628 12.653 1.64381 13.5046 1.32143 14.4035C1.0008 15.3007 0.764267 16.2084 0.568034 17.1161L4.41561 19.2153C4.321 19.8847 4.27895 20.5505 4.26318 21.2164L0.0949707 22.6691C0.187831 24.5615 0.545256 26.4137 1.11994 28.1905L5.52118 28.0819C5.77173 28.7004 6.05556 29.2997 6.37444 29.885L3.49752 33.2196C4.50672 34.7914 5.7104 36.2422 7.11382 37.5162L10.8808 35.2154C11.4047 35.6254 11.9478 36.0162 12.5243 36.3667L11.7043 40.6738C12.5313 41.0978 13.381 41.4903 14.2799 41.8128C15.1787 42.1352 16.0845 42.37 16.9938 42.5662L19.0911 38.7182C19.7604 38.8128 20.4279 38.8567 21.0937 38.8724L22.5444 43.0394C24.4367 42.9465 26.2886 42.589 28.0653 42.0143L27.9584 37.6125C28.5751 37.362 29.1761 37.0781 29.7595 36.7609L33.0937 39.6382C34.6654 38.6271 36.1178 37.4233 37.3898 36.0215L35.0911 32.2523C35.5011 31.7284 35.8901 31.1869 36.2422 30.6087L40.5471 31.4287Z" fill="#245394"/>
</svg>
