<svg width="129" height="129" viewBox="0 0 129 129" fill="none" xmlns="http://www.w3.org/2000/svg">
<g id="Black and White Collection 10">
<g id="Group" opacity="0.1">
<path id="Vector" opacity="0.1" d="M128.12 125.13V128.13H125.12" stroke="#20263C" stroke-miterlimit="10"/>
<path id="Vector_2" opacity="0.1" d="M119.35 128.13H6.87988" stroke="#20263C" stroke-miterlimit="10" stroke-dasharray="5.77 5.77"/>
<path id="Vector_3" opacity="0.1" d="M4 128.13H1V125.13" stroke="#20263C" stroke-miterlimit="10"/>
<path id="Vector_4" opacity="0.1" d="M1 119.36V6.89014" stroke="#20263C" stroke-miterlimit="10" stroke-dasharray="5.77 5.77"/>
<path id="Vector_5" opacity="0.1" d="M1 4V1H4" stroke="#20263C" stroke-miterlimit="10"/>
<path id="Vector_6" opacity="0.1" d="M9.76001 1H122.24" stroke="#20263C" stroke-miterlimit="10" stroke-dasharray="5.77 5.77"/>
<path id="Vector_7" opacity="0.1" d="M125.12 1H128.12V4" stroke="#20263C" stroke-miterlimit="10"/>
<path id="Vector_8" opacity="0.1" d="M128.12 9.77002V122.24" stroke="#20263C" stroke-miterlimit="10" stroke-dasharray="5.77 5.77"/>
</g>
<path id="Vector_9" opacity="0.8" d="M64.1298 23L29.9985 45.6192V45.6618L56.3911 63.1432L64.1298 58.0053V23Z" fill="#A7A9AC"/>
<path id="Vector_10" opacity="0.8" d="M29.9985 80.6884L64.1298 103.286V68.2809L56.3911 63.1431L29.9985 80.6244V80.6884Z" fill="#A7A9AC"/>
<path id="Vector_11" opacity="0.8" d="M101.608 46.1739L67.4771 23.5547V58.56L75.2371 63.6978L101.608 46.2165V46.1739Z" fill="#A7A9AC"/>
<path id="Vector_12" opacity="0.8" d="M67.4771 103.841L101.608 81.2215V81.1788L75.2371 63.6975L67.4771 68.8353V103.841Z" fill="#A7A9AC"/>
<path id="Vector_13" opacity="0.8" d="M29.9985 45.6619V80.6246L56.3911 63.1432L29.9985 45.6619Z" fill="#414042"/>
<path id="Vector_14" opacity="0.8" d="M101.609 81.179V46.2163L75.2373 63.6977L101.609 81.179Z" fill="#414042"/>
</g>
</svg>
